<svg width="656" height="557" viewBox="0 0 656 557" fill="none" xmlns="http://www.w3.org/2000/svg">
<g clip-path="url(#clip0)">
<path d="M558.324 190.662C565.335 204.445 570.86 218.662 586.324 218.662C593.75 218.662 600.872 215.712 606.123 210.46C611.374 205.209 614.324 198.088 614.324 190.662C614.324 183.235 611.374 176.114 606.123 170.863C600.872 165.612 593.75 162.662 586.324 162.662C570.608 162.465 545.275 165.006 558.324 190.662Z" fill="#2F2E41"/>
<path d="M580.332 527.399L568.366 530.065L552.386 485.179L570.047 481.243L580.332 527.399Z" fill="#FFB8B8"/>
<path d="M585.969 538.318L547.385 546.917L547.276 546.429C546.837 544.456 546.79 542.417 547.138 540.427C547.487 538.436 548.224 536.534 549.308 534.829C550.392 533.123 551.801 531.648 553.455 530.487C555.108 529.327 556.975 528.503 558.947 528.063L558.948 528.063L582.514 522.812L585.969 538.318Z" fill="#2F2E41"/>
<path d="M615.88 543.442H603.62L597.787 496.154L615.882 496.155L615.88 543.442Z" fill="#FFB8B8"/>
<path d="M619.006 555.327L579.476 555.325V554.825C579.476 552.805 579.873 550.804 580.647 548.937C581.42 547.07 582.553 545.374 583.982 543.945C585.411 542.517 587.107 541.383 588.974 540.61C590.841 539.837 592.841 539.439 594.862 539.439H594.863L619.007 539.44L619.006 555.327Z" fill="#2F2E41"/>
<path d="M615.961 518.662H600.314C599.227 518.658 598.178 518.262 597.359 517.548C596.54 516.833 596.006 515.847 595.856 514.771L581.672 405.054C581.625 404.711 581.46 404.395 581.207 404.159C580.953 403.924 580.626 403.783 580.28 403.761C579.934 403.739 579.592 403.838 579.311 404.04C579.03 404.242 578.827 404.535 578.737 404.87L570.331 436.199L577.908 507.55C578.037 508.65 577.755 509.758 577.117 510.663C576.479 511.568 575.529 512.205 574.45 512.453L562.038 515.318C560.936 515.567 559.779 515.394 558.797 514.833C557.816 514.272 557.08 513.363 556.735 512.287L536.747 442.92C535.137 437.837 534.583 432.478 535.12 427.173L541.374 364.639L541.848 364.663L625.341 368.686L620.459 514.319C620.422 515.486 619.932 516.592 619.092 517.403C618.252 518.214 617.129 518.666 615.961 518.662Z" fill="#2F2E41"/>
<path d="M584.946 219.207C598.511 219.207 609.507 208.21 609.507 194.646C609.507 181.081 598.511 170.085 584.946 170.085C571.381 170.085 560.385 181.081 560.385 194.646C560.385 208.21 571.381 219.207 584.946 219.207Z" fill="#FFB8B8"/>
<path d="M623.471 375.421C623.39 375.421 623.309 375.419 623.227 375.414L539.981 370.939C539.293 370.902 538.623 370.708 538.022 370.371C537.421 370.035 536.906 369.565 536.515 368.997C536.125 368.43 535.87 367.781 535.77 367.099C535.67 366.418 535.728 365.722 535.939 365.067L542.528 344.608C549.582 322.672 550.787 299.276 546.025 276.732C544.777 270.833 544.802 264.735 546.1 258.847C547.398 252.959 549.938 247.415 553.55 242.587C557.102 237.826 561.631 233.878 566.832 231.007C572.033 228.136 577.787 226.409 583.709 225.941H583.71C584.117 225.909 584.526 225.88 584.937 225.855C591.203 225.484 597.472 226.517 603.288 228.878C609.103 231.239 614.319 234.868 618.553 239.501C622.788 244.134 625.935 249.654 627.765 255.658C629.595 261.662 630.062 267.998 629.131 274.205L623.327 313.178L627.954 370.56C628.004 371.179 627.925 371.802 627.723 372.389C627.52 372.977 627.198 373.516 626.777 373.972C626.356 374.429 625.844 374.793 625.275 375.043C624.706 375.292 624.092 375.421 623.471 375.421V375.421Z" fill="#CCCCCC"/>
<path d="M521.034 380.601C522.252 379.777 523.274 378.696 524.028 377.434C524.782 376.172 525.251 374.76 525.4 373.298C525.55 371.835 525.377 370.358 524.894 368.969C524.411 367.581 523.629 366.315 522.604 365.262L538.633 333.323L520.192 335.507L507.798 365.501C506.142 367.341 505.219 369.724 505.202 372.199C505.186 374.674 506.078 377.069 507.709 378.93C509.341 380.791 511.599 381.99 514.054 382.297C516.51 382.605 518.994 382.002 521.034 380.601H521.034Z" fill="#FFB8B8"/>
<path d="M631.07 385.806C630.007 384.79 629.18 383.553 628.647 382.183C628.115 380.813 627.889 379.343 627.985 377.876C628.082 376.409 628.499 374.981 629.208 373.693C629.916 372.405 630.898 371.287 632.085 370.42L621.62 336.252L639.436 341.486L646.643 373.13C647.968 375.221 648.481 377.725 648.083 380.168C647.686 382.611 646.406 384.823 644.486 386.385C642.567 387.948 640.141 388.752 637.668 388.645C635.195 388.538 632.847 387.528 631.07 385.806V385.806Z" fill="#FFB8B8"/>
<path d="M629.337 367.907C628.246 367.91 627.191 367.515 626.37 366.795C625.55 366.075 625.02 365.08 624.882 363.997L616.554 301.174L603.268 252.081C602.707 250.006 602.624 247.831 603.027 245.719C603.43 243.607 604.307 241.615 605.592 239.892C606.878 238.169 608.538 236.761 610.448 235.773C612.357 234.786 614.466 234.246 616.615 234.193V234.193C620.02 234.121 623.338 235.271 625.968 237.435C628.597 239.599 630.365 242.634 630.949 245.989L650.744 361.933C650.851 362.563 650.823 363.208 650.661 363.827C650.5 364.445 650.209 365.022 649.807 365.519C649.405 366.015 648.902 366.421 648.332 366.709C647.761 366.996 647.136 367.159 646.497 367.186L629.533 367.903C629.467 367.905 629.402 367.907 629.337 367.907Z" fill="#CCCCCC"/>
<path d="M529.958 360.851C529.636 360.851 529.315 360.817 529 360.749L512.394 357.208C511.769 357.075 511.18 356.81 510.665 356.432C510.151 356.053 509.722 355.569 509.409 355.012C509.096 354.454 508.906 353.837 508.85 353.201C508.794 352.564 508.875 351.923 509.086 351.32L547.978 240.314C549.118 237.106 551.368 234.412 554.322 232.718C557.275 231.025 560.737 230.443 564.081 231.079V231.079C566.191 231.49 568.18 232.375 569.898 233.668C571.616 234.961 573.017 236.627 573.997 238.54C574.976 240.454 575.508 242.565 575.552 244.714C575.596 246.863 575.151 248.995 574.251 250.947L552.924 297.19L534.239 357.677C533.96 358.595 533.393 359.399 532.622 359.971C531.852 360.542 530.917 360.851 529.958 360.851V360.851Z" fill="#CCCCCC"/>
<path d="M558.883 180.765C564.495 184.634 571.157 186.692 577.974 186.665C575.542 188.351 572.774 189.49 569.86 190.003C578.923 191.947 588.29 192 597.374 190.158C599.393 189.834 601.342 189.165 603.134 188.179C604.027 187.681 604.805 187 605.417 186.18C606.03 185.361 606.463 184.422 606.689 183.425C607.292 179.976 604.605 176.843 601.813 174.732C597.537 171.548 592.608 169.355 587.38 168.31C582.153 167.266 576.759 167.396 571.588 168.692C568.212 169.565 564.83 171.039 562.637 173.751C560.444 176.462 559.794 180.642 561.884 183.434L558.883 180.765Z" fill="#2F2E41"/>
<path d="M430.72 1.97369e-09H8.72021C6.40812 0.00198596 4.19129 0.921333 2.55637 2.55621C0.921444 4.19109 0.00204429 6.4079 0 8.72V420.04C0.00205751 422.352 0.921447 424.569 2.55637 426.204C4.19129 427.839 6.40812 428.758 8.72021 428.76H45.7202V426.27H8.72021C7.06851 426.268 5.48498 425.611 4.31705 424.443C3.14911 423.275 2.49213 421.692 2.4902 420.04V8.72C2.49212 7.06829 3.14911 5.48477 4.31705 4.31683C5.48498 3.1489 7.0685 2.49192 8.72021 2.49001H430.72C432.373 2.48987 433.959 3.14588 435.129 4.31396C436.299 5.48205 436.958 7.06672 436.96 8.72V420.04C436.961 421.257 436.603 422.446 435.93 423.46C435.332 424.352 434.521 425.081 433.57 425.58C432.689 426.035 431.712 426.272 430.72 426.27H393.72V428.76H430.72C431.981 428.76 433.227 428.486 434.371 427.958C435.516 427.43 436.532 426.659 437.35 425.7C437.42 425.625 437.483 425.545 437.54 425.46C438.061 424.824 438.482 424.112 438.79 423.35C439.229 422.302 439.454 421.176 439.45 420.04V8.72C439.448 6.40638 438.527 4.18842 436.89 2.55338C435.253 0.918334 433.034 -4.91605e-05 430.72 1.97369e-09Z" fill="#3F3D56"/>
<path d="M438.199 34.9531H1.24231V37.4459H438.199V34.9531Z" fill="#3F3D56"/>
<path d="M22.4312 26.1784C26.5614 26.1784 29.9096 22.8302 29.9096 18.6999C29.9096 14.5697 26.5614 11.2215 22.4312 11.2215C18.301 11.2215 14.9528 14.5697 14.9528 18.6999C14.9528 22.8302 18.301 26.1784 22.4312 26.1784Z" fill="#3F3D56"/>
<path d="M43.9317 26.1784C48.0619 26.1784 51.4101 22.8302 51.4101 18.6999C51.4101 14.5697 48.0619 11.2215 43.9317 11.2215C39.8015 11.2215 36.4532 14.5697 36.4532 18.6999C36.4532 22.8302 39.8015 26.1784 43.9317 26.1784Z" fill="#3F3D56"/>
<path d="M65.4322 26.1784C69.5624 26.1784 72.9106 22.8302 72.9106 18.6999C72.9106 14.5697 69.5624 11.2215 65.4322 11.2215C61.3019 11.2215 57.9537 14.5697 57.9537 18.6999C57.9537 22.8302 61.3019 26.1784 65.4322 26.1784Z" fill="#3F3D56"/>
<path d="M325.224 92.6558H114.224C110.777 92.6558 107.47 91.2861 105.032 88.8482C102.594 86.4102 101.224 83.1036 101.224 79.6558C101.224 76.208 102.594 72.9014 105.032 70.4634C107.47 68.0254 110.777 66.6558 114.224 66.6558H325.224C328.672 66.6558 331.979 68.0254 334.417 70.4634C336.855 72.9014 338.224 76.208 338.224 79.6558C338.224 83.1036 336.855 86.4102 334.417 88.8482C331.979 91.2861 328.672 92.6558 325.224 92.6558V92.6558ZM114.224 68.6558C111.307 68.6558 108.509 69.8147 106.446 71.8776C104.383 73.9405 103.224 76.7384 103.224 79.6558C103.224 82.5732 104.383 85.3711 106.446 87.434C108.509 89.4969 111.307 90.6558 114.224 90.6558H325.224C328.142 90.6558 330.94 89.4969 333.003 87.434C335.066 85.3711 336.224 82.5732 336.224 79.6558C336.224 76.7384 335.066 73.9405 333.003 71.8776C330.94 69.8147 328.142 68.6558 325.224 68.6558H114.224Z" fill="#3F3D56"/>
<path d="M378.724 274.25H60.7244C56.2172 274.245 51.8962 272.452 48.7092 269.265C45.5221 266.078 43.7294 261.757 43.7244 257.25V155.25C43.7294 150.743 45.5221 146.422 48.7092 143.235C51.8962 140.048 56.2172 138.255 60.7244 138.25H378.724C383.231 138.255 387.553 140.048 390.74 143.235C393.927 146.422 395.719 150.743 395.724 155.25V257.25C395.719 261.757 393.927 266.078 390.74 269.265C387.553 272.452 383.231 274.245 378.724 274.25V274.25ZM60.7244 140.25C56.7475 140.254 52.9348 141.836 50.1227 144.648C47.3107 147.46 45.7289 151.273 45.7244 155.25V257.25C45.7289 261.227 47.3107 265.04 50.1227 267.852C52.9348 270.664 56.7475 272.246 60.7244 272.25H378.724C382.701 272.246 386.514 270.664 389.326 267.852C392.138 265.04 393.72 261.227 393.724 257.25V155.25C393.72 151.273 392.138 147.46 389.326 144.648C386.514 141.836 382.701 140.254 378.724 140.25H60.7244Z" fill="#3F3D56"/>
<path d="M261.425 200.75H150.425C148.304 200.75 146.269 199.907 144.768 198.407C143.268 196.907 142.425 194.872 142.425 192.75C142.425 190.628 143.268 188.593 144.768 187.093C146.269 185.593 148.304 184.75 150.425 184.75H261.425C263.547 184.75 265.582 185.593 267.082 187.093C268.582 188.593 269.425 190.628 269.425 192.75C269.425 194.872 268.582 196.907 267.082 198.407C265.582 199.907 263.547 200.75 261.425 200.75Z" fill="#718096"/>
<path d="M364.425 227.75H150.425C148.304 227.75 146.269 226.907 144.768 225.407C143.268 223.907 142.425 221.872 142.425 219.75C142.425 217.628 143.268 215.593 144.768 214.093C146.269 212.593 148.304 211.75 150.425 211.75H364.425C366.547 211.75 368.582 212.593 370.082 214.093C371.582 215.593 372.425 217.628 372.425 219.75C372.425 221.872 371.582 223.907 370.082 225.407C368.582 226.907 366.547 227.75 364.425 227.75Z" fill="#718096"/>
<path d="M97.0236 236.25C113.592 236.25 127.024 222.819 127.024 206.25C127.024 189.681 113.592 176.25 97.0236 176.25C80.4551 176.25 67.0236 189.681 67.0236 206.25C67.0236 222.819 80.4551 236.25 97.0236 236.25Z" fill="#718096"/>
<path d="M364.413 260.25H336.413C334.292 260.25 332.257 259.407 330.757 257.907C329.256 256.407 328.413 254.372 328.413 252.25C328.413 250.128 329.256 248.093 330.757 246.593C332.257 245.093 334.292 244.25 336.413 244.25H364.413C366.535 244.25 368.57 245.093 370.07 246.593C371.571 248.093 372.413 250.128 372.413 252.25C372.413 254.372 371.571 256.407 370.07 257.907C368.57 259.407 366.535 260.25 364.413 260.25Z" fill="white"/>
<path d="M364.413 260.25H336.413C334.292 260.25 332.257 259.407 330.757 257.907C329.256 256.407 328.413 254.372 328.413 252.25C328.413 250.128 329.256 248.093 330.757 246.593C332.257 245.093 334.292 244.25 336.413 244.25H364.413C366.535 244.25 368.57 245.093 370.07 246.593C371.571 248.093 372.413 250.128 372.413 252.25C372.413 254.372 371.571 256.407 370.07 257.907C368.57 259.407 366.535 260.25 364.413 260.25Z" fill="#CCCCCC"/>
<path d="M378.72 322.25H60.7202C56.2135 322.256 51.8932 324.049 48.7065 327.236C45.5197 330.423 43.7266 334.743 43.7202 339.25V441.25C43.7266 445.757 45.5197 450.077 48.7065 453.264C51.8932 456.451 56.2135 458.244 60.7202 458.25H378.72C383.227 458.245 387.549 456.453 390.736 453.266C393.923 450.079 395.715 445.757 395.72 441.25V339.25C395.715 334.743 393.923 330.422 390.736 327.234C387.549 324.047 383.227 322.255 378.72 322.25ZM393.72 441.25C393.717 445.227 392.136 449.041 389.323 451.853C386.511 454.665 382.697 456.247 378.72 456.25H60.7202C56.7435 456.245 52.931 454.663 50.119 451.851C47.307 449.039 45.7251 445.227 45.7202 441.25V339.25C45.7251 335.273 47.307 331.461 50.119 328.649C52.931 325.837 56.7435 324.255 60.7202 324.25H378.72C382.697 324.253 386.511 325.835 389.323 328.647C392.136 331.459 393.717 335.273 393.72 339.25V441.25Z" fill="#3F3D56"/>
<path d="M261.425 384.75H150.425C148.304 384.75 146.269 383.907 144.768 382.407C143.268 380.907 142.425 378.872 142.425 376.75C142.425 374.628 143.268 372.593 144.768 371.093C146.269 369.593 148.304 368.75 150.425 368.75H261.425C263.547 368.75 265.582 369.593 267.082 371.093C268.582 372.593 269.425 374.628 269.425 376.75C269.425 378.872 268.582 380.907 267.082 382.407C265.582 383.907 263.547 384.75 261.425 384.75Z" fill="#718096"/>
<path d="M364.425 411.75H150.425C148.304 411.75 146.269 410.907 144.768 409.407C143.268 407.907 142.425 405.872 142.425 403.75C142.425 401.628 143.268 399.593 144.768 398.093C146.269 396.593 148.304 395.75 150.425 395.75H364.425C366.547 395.75 368.582 396.593 370.082 398.093C371.582 399.593 372.425 401.628 372.425 403.75C372.425 405.872 371.582 407.907 370.082 409.407C368.582 410.907 366.547 411.75 364.425 411.75Z" fill="#718096"/>
<path d="M97.0236 420.25C113.592 420.25 127.024 406.819 127.024 390.25C127.024 373.681 113.592 360.25 97.0236 360.25C80.4551 360.25 67.0236 373.681 67.0236 390.25C67.0236 406.819 80.4551 420.25 97.0236 420.25Z" fill="#718096"/>
<path d="M364.413 444.25H336.413C334.292 444.25 332.257 443.407 330.757 441.907C329.256 440.407 328.413 438.372 328.413 436.25C328.413 434.128 329.256 432.093 330.757 430.593C332.257 429.093 334.292 428.25 336.413 428.25H364.413C366.535 428.25 368.57 429.093 370.07 430.593C371.571 432.093 372.413 434.128 372.413 436.25C372.413 438.372 371.571 440.407 370.07 441.907C368.57 443.407 366.535 444.25 364.413 444.25Z" fill="#CCCCCC"/>
<path d="M654.272 556.25H514.272C514.007 556.25 513.752 556.145 513.565 555.957C513.377 555.77 513.272 555.515 513.272 555.25C513.272 554.985 513.377 554.73 513.565 554.543C513.752 554.355 514.007 554.25 514.272 554.25H654.272C654.537 554.25 654.791 554.355 654.979 554.543C655.166 554.73 655.272 554.985 655.272 555.25C655.272 555.515 655.166 555.77 654.979 555.957C654.791 556.145 654.537 556.25 654.272 556.25Z" fill="#3F3D56"/>
</g>
<defs>
<clipPath id="clip0">
<rect width="655.272" height="556.25" fill="white"/>
</clipPath>
</defs>
</svg>
